<?xml version="1.0" encoding="utf-8"?>
<!-- Generator: Adobe Illustrator 24.1.2, SVG Export Plug-In . SVG Version: 6.00 Build 0)  -->
<svg version="1.1" id="Layer_1" xmlns="http://www.w3.org/2000/svg" xmlns:xlink="http://www.w3.org/1999/xlink" x="0px" y="0px"
	 viewBox="0 0 788.8 86.2" style="enable-background:new 0 0 788.8 86.2;" xml:space="preserve">
<g>
	<path d="M118.7,84.9H84.1L65.5,62.8H25.8v22.1H0V42.2h72.6c4,0,7.4-0.8,10.1-2.5c2.8-1.7,4.1-4,4.1-6.9c0-3.3-1.3-5.7-3.7-7.3
		c-2.5-1.6-6-2.4-10.5-2.4H0L16.9,1.4h53.7c4.7,0,9.7,0.4,14.7,1.3c5.1,0.9,9.7,2.4,13.8,4.7s7.6,5.3,10.3,9.1
		c2.7,3.8,4.1,8.7,4.1,14.7c0,3.2-0.5,6.3-1.5,9.2c-1,2.9-2.4,5.5-4.3,7.9c-1.9,2.3-4.2,4.3-6.9,5.9c-2.7,1.6-5.8,2.8-9.2,3.4
		c1.4,1.1,3,2.5,4.7,4.1c1.8,1.7,4.1,3.9,7,6.9L118.7,84.9z"/>
	<path d="M183.3,0c20.3,0,35.6,3.5,45.7,10.4s15.3,17.8,15.3,32.7c0,15-5.1,25.9-15.2,32.8c-10.1,6.9-25.4,10.4-45.8,10.4
		c-20.5,0-35.8-3.4-45.9-10.4C127.4,69,122.3,58,122.3,43.1c0-14.9,5.1-25.8,15.2-32.7C147.7,3.5,162.9,0,183.3,0z M183.3,64.5
		c6.5,0,12-0.3,16.5-0.8c4.5-0.5,8.1-1.6,10.9-3.2s4.8-3.8,6.1-6.5c1.3-2.8,1.9-6.4,1.9-10.9s-0.6-8.1-1.9-10.9
		c-1.3-2.8-3.3-5-6.1-6.5c-2.8-1.5-6.4-2.6-10.9-3.1s-10-0.8-16.5-0.8s-12,0.3-16.5,0.8c-4.5,0.5-8.1,1.6-10.9,3.1
		c-2.8,1.5-4.8,3.7-6.1,6.5s-1.9,6.4-1.9,10.9s0.6,8.1,1.9,10.9c1.3,2.8,3.3,5,6.1,6.5c2.8,1.6,6.4,2.6,10.9,3.2
		C171.4,64.3,176.9,64.5,183.3,64.5z"/>
	<path d="M315.9,0c20.3,0,35.5,3.5,45.7,10.4s15.3,17.8,15.3,32.7c0,15-5.1,25.9-15.2,32.8c-10.1,6.9-25.4,10.4-45.8,10.4
		c-20.5,0-35.8-3.4-45.9-10.4C259.9,69,254.9,58,254.9,43.1c0-14.9,5.1-25.8,15.2-32.7C280.2,3.5,295.5,0,315.9,0z M315.9,64.5
		c6.5,0,12-0.3,16.5-0.8c4.5-0.5,8.1-1.6,10.9-3.2s4.8-3.8,6-6.5c1.3-2.8,1.9-6.4,1.9-10.9s-0.6-8.1-1.9-10.9c-1.3-2.8-3.3-5-6-6.5
		c-2.8-1.5-6.4-2.6-10.9-3.1c-4.5-0.5-10-0.8-16.5-0.8s-12,0.3-16.5,0.8c-4.5,0.5-8.1,1.6-10.9,3.1c-2.8,1.5-4.8,3.7-6,6.5
		s-1.9,6.4-1.9,10.9s0.6,8.1,1.9,10.9c1.3,2.8,3.3,5,6,6.5c2.8,1.6,6.4,2.6,10.9,3.2C303.9,64.3,309.4,64.5,315.9,64.5z"/>
	<path d="M444.1,32.5c1.8,3.3,3.4,6.1,4.8,8.5c1.4,2.5,2.6,4.6,3.6,6.5c1,1.9,2,3.7,2.8,5.2c0.8,1.6,1.6,3.1,2.3,4.6
		c0.7-1.5,1.4-3,2.2-4.6c0.8-1.5,1.7-3.3,2.8-5.2c1-2,2.3-4.1,3.6-6.5s3-5.2,4.8-8.5l13.4-23.7c1.5-2.7,3.4-4.8,5.7-6.4
		c2.3-1.6,5.1-2.4,8.5-2.4c3.2,0,6.2,0.9,8.8,2.8s4.5,4.8,5.7,8.7L534,84.9h-25.7l-7.9-29.1c-1.3-4.7-2.5-8.9-3.4-12.5
		c-0.9-3.6-1.7-7.1-2.4-10.5c-1.4,2.9-3,6.1-4.7,9.7c-1.8,3.5-4,8-6.9,13.4l-11.2,21c-1.1,2.1-2.2,3.7-3.3,4.9
		c-1.1,1.2-2.3,2.1-3.4,2.8c-1.2,0.7-2.4,1.1-3.7,1.3s-2.8,0.3-4.4,0.3s-3-0.1-4.4-0.3c-1.3-0.2-2.6-0.7-3.7-1.3
		c-1.2-0.7-2.3-1.6-3.4-2.8s-2.2-2.8-3.3-4.9L431,55.8c-1.5-2.8-2.8-5.4-4-7.6c-1.2-2.3-2.2-4.3-3.2-6c-1-1.8-1.8-3.4-2.5-4.9
		s-1.4-3-2.1-4.4c-0.7,3.3-1.5,6.8-2.4,10.4s-2,7.8-3.2,12.5l-7.9,29.1h-25.4L402,11.5c1.2-3.9,3.1-6.8,5.7-8.7s5.6-2.8,8.9-2.8
		c3.3,0,6.1,0.8,8.4,2.4s4.2,3.7,5.7,6.5L444.1,32.5z"/>
	<path d="M637.8,41.9c3.7,1.1,6.8,3.2,9.3,6.4c2.5,3.2,3.8,7.2,3.8,12.2c0,3.5-0.5,6.7-1.6,9.7s-2.9,5.5-5.5,7.7
		c-2.6,2.2-6,3.9-10.4,5.1s-9.8,1.9-16.4,1.9h-73.4V34.1h73.9c1.9,0,3.6-0.4,5-1.2c1.5-0.8,2.2-2.3,2.2-4.4c0-2.1-0.8-3.5-2.3-4.2
		c-1.5-0.8-3.2-1.1-5-1.1h-73.9L561,1.4h55.3c5,0,9.5,0.5,13.5,1.4c4,1,7.5,2.4,10.4,4.4s5.1,4.4,6.6,7.2s2.3,6.2,2.3,10.1
		c0,2.5-0.3,4.7-1,6.6c-0.7,1.9-1.5,3.6-2.6,5c-1,1.5-2.3,2.7-3.6,3.6C640.6,40.7,639.2,41.4,637.8,41.9z M569.5,51.9v11.5H617
		c2.8,0,4.9-0.5,6.1-1.5s1.9-2.5,1.9-4.4c0-1.8-0.6-3.2-1.9-4.2s-3.3-1.4-6.1-1.4L569.5,51.9L569.5,51.9z"/>
	<path d="M691.7,84.9l15.6-21.5h21c2.5,0,5.1,0,7.8,0s5,0.1,7,0.3c-1.2-1.5-2.5-3.4-4.1-5.7s-3-4.4-4.4-6.4l-15-22.1l-39.2,55.4
		h-30.6l53.6-75.5c1.8-2.4,4-4.6,6.6-6.5S716,0,720.1,0c3.9,0,7.2,0.9,9.8,2.7c2.6,1.8,4.8,4,6.7,6.7l52.2,75.5H691.7z"/>
</g>
</svg>
