<?xml version="1.0" encoding="utf-8"?>
<!-- Generator: Adobe Illustrator 24.1.2, SVG Export Plug-In . SVG Version: 6.00 Build 0)  -->
<svg version="1.1" id="Layer_1" xmlns="http://www.w3.org/2000/svg" xmlns:xlink="http://www.w3.org/1999/xlink" x="0px" y="0px"
	 viewBox="0 0 24 24" style="enable-background:new 0 0 24 24;" xml:space="preserve">
<style type="text/css">
	.st0{fill-rule:evenodd;clip-rule:evenodd;fill:url(#SVGID_1_);}
	.st1{fill:#FFFFFF;}
</style>
<linearGradient id="SVGID_1_" gradientUnits="userSpaceOnUse" x1="0.9827" y1="0.9455" x2="23.7676" y2="23.8074">
	<stop  offset="0" style="stop-color:#450AF5"/>
	<stop  offset="1" style="stop-color:#C4EFD9"/>
</linearGradient>
<rect class="st0" width="24" height="24"/>
<g>
	<g>
		<path class="st1" d="M15,6.3c-0.7,0-1.3,0.2-1.9,0.7c-0.5,0.4-0.9,1-1.1,1.3c-0.2-0.4-0.6-0.9-1.1-1.3C10.3,6.5,9.7,6.3,9,6.3
			c-2,0-3.4,1.6-3.4,3.7c0,2.3,1.8,3.9,4.6,6.3c0.5,0.4,1,0.9,1.6,1.4c0.1,0.1,0.2,0.1,0.3,0.1s0.2,0,0.3-0.1
			c0.6-0.5,1.1-0.9,1.6-1.4c2.8-2.4,4.6-4,4.6-6.3C18.5,7.9,17,6.3,15,6.3z"/>
	</g>
</g>
</svg>
